<svg width="1421" height="795" viewBox="0 0 1421 795" fill="none" preserveAspectRatio = "none" xmlns="http://www.w3.org/2000/svg">
<path fill-rule="evenodd" clip-rule="evenodd" d="M0.999986 652C4.99999 651.375 9.79999 649.859 14 649C28.4814 645.82 43.1958 643.814 58 643C81.449 641.885 104.947 643.564 128 648C168.1 655.417 199.9 674.07 238 685C274.1 695.384 313.9 696.826 352 693C401.5 688.081 448.5 674.666 497 666C547.934 656.971 599.357 650.96 651 648C727.1 643.706 805.6 647.169 878 667C944.7 685.27 1005.1 713.845 1067 740C1183.8 789.265 1311.2 810.137 1441 780V307C1441 250.084 1441.1 60.976 1441 0H0.999986V650C1.09999 650.781 0.799986 651.297 0.999986 652Z" fill="url(#paint0_linear)"/>
<path opacity="0.027" fill-rule="evenodd" clip-rule="evenodd" d="M1162 203C1089.69 163.072 1020.19 119.905 941 89C855.038 55.453 759.584 40.528 666 36C602.416 32.984 538.89 35.513 476 40C415.6 44.363 355.145 53.346 294 53C246.931 52.781 198.8 46.332 156 29C134.927 20.483 116.244 10.282 97 0H1441C1441.03 16.989 1440.99 34.916 1441 53C1440.99 72.012 1441 87.925 1441 100V298C1342.44 284.419 1248.78 250.848 1162 203Z" fill="white"/>
<path opacity="0.04" fill-rule="evenodd" clip-rule="evenodd" d="M1067 740C1005.1 713.845 944.7 685.269 878 667C805.6 647.169 727.1 643.706 651 648C599.357 650.96 547.934 656.971 497 666C448.5 674.666 401.5 688.081 352 693C313.9 696.826 274.1 695.384 238 685C199.9 674.07 168.1 655.417 128 648C104.947 643.564 81.449 641.886 58 643C43.1959 643.814 28.4815 645.82 14 649C9.8 649.859 5 651.375 1 652V650.71C1.02773 650.474 1.02773 650.237 1 650.001V612C7.3 611.2 13.8 611.5 20 611C44.8279 609.289 69.7721 611.311 94 617C136.4 627.1 169.7 653.1 210 668C248.2 682 289.7 683.1 330 678C382.4 671.3 432.7 653.7 484 642C537.4 629.8 592.3 621 647 617C727.6 611 811.4 616.1 888 643C958.6 667.8 1021.5 706.6 1087 742C1100.97 749.559 1115.08 756.613 1129.34 763.164C1108.27 756.397 1087.49 748.675 1067 740Z" fill="white"/>
<defs>
<linearGradient id="paint0_linear" x1="-706.412" y1="397.002" x2="-28.5295" y2="1604.79" gradientUnits="userSpaceOnUse">
<stop stop-color="#5A67FF"/>
<stop offset="1" stop-color="#9B2BCC"/>
</linearGradient>
</defs>
</svg>
