<svg width="164" height="26" viewBox="0 0 164 26" fill="none" xmlns="http://www.w3.org/2000/svg">
<path d="M72.2335 21V6.33691H70.0206V12.4814H63.0381V6.33691H60.8253V21H63.0381V14.3936H70.0206V21H72.2335ZM76.4444 21L77.8194 16.7998H83.0831L84.4581 21H86.7999L81.6866 6.33691H79.2803L74.1671 21H76.4444ZM80.4942 8.74316L82.5567 15.0811H78.3458L80.419 8.74316H80.4942ZM94.212 6.33691H88.7335V21H90.9249V15.2852H94.169L96.8331 21H99.336L96.3604 14.8877C97.585 14.4365 99.0674 13.2012 99.0674 10.7949C99.0674 8.39941 97.5421 6.33691 94.212 6.33691ZM90.9249 13.4697V8.19531H93.9112C95.6299 8.19531 96.7794 9.1084 96.7794 10.8916C96.7794 12.5459 95.7589 13.4697 93.8467 13.4697H90.9249ZM103.955 21V10.6553H104.03L107.973 19.5713H109.659L113.591 10.6553H113.677V21H115.675V6.33691H113.483L108.854 17.0576H108.8L104.159 6.33691H101.968V21H103.955ZM120.756 12.6855C120.756 9.55957 122.389 7.95898 124.537 7.95898C126.696 7.95898 128.318 9.55957 128.318 12.6855V14.7695C128.318 17.9062 126.696 19.3779 124.537 19.3779C122.389 19.3779 120.756 17.9062 120.756 14.7695V12.6855ZM118.522 14.7695C118.522 18.916 120.842 21.3008 124.516 21.3008C128.2 21.3008 130.553 18.916 130.553 14.7695V12.707C130.553 8.53906 128.232 6.03613 124.559 6.03613C120.885 6.03613 118.522 8.53906 118.522 12.707V14.7695ZM135.44 21V10.0859H135.505L142.648 21H144.657V6.33691H142.563V17.2295H142.498L135.365 6.33691H133.357V21H135.44ZM153.401 21V14.8984L158.311 6.33691H155.861L152.359 12.75H152.284L148.793 6.33691H146.301L151.21 14.9307V21H153.401Z" fill="white"/>
<path fill-rule="evenodd" clip-rule="evenodd" d="M0.971006 7.63405C2.14182 7.15399 3.42465 7.0153 4.67101 7.23405C5.96306 7.48344 7.18906 7.99905 8.27101 8.74805C9.31701 9.44805 10.207 10.205 10.998 10.841C11.6579 11.4012 12.38 11.8837 13.15 12.279C13.4613 12.4331 13.7872 12.5554 14.123 12.644C14.4603 12.743 14.8062 12.81 15.156 12.844C15.248 12.852 15.34 12.86 15.432 12.873L15.722 12.884C15.916 12.901 16.11 12.884 16.304 12.884C16.498 12.884 16.677 12.853 16.861 12.836C17.035 12.801 17.216 12.785 17.379 12.736C17.7112 12.6572 18.034 12.5433 18.342 12.396C18.6779 12.2425 18.9964 12.0534 19.292 11.832C20.037 11.2503 20.7388 10.6153 21.392 9.93205C22.2478 9.03131 23.1796 8.20593 24.177 7.46505C24.7546 7.04919 25.372 6.69145 26.02 6.39705C26.6811 6.08906 27.3772 5.86273 28.093 5.72305C28.4424 5.65171 28.7952 5.59798 29.15 5.56205C29.498 5.53705 29.85 5.51105 30.188 5.51305C30.526 5.51505 30.866 5.51305 31.202 5.55405L31.702 5.60505L32.211 5.68905C33.5877 5.91871 34.8958 6.45269 36.04 7.25205C37.0658 7.98988 37.9738 8.87899 38.733 9.88905C39.453 10.798 40.053 11.689 40.701 12.475C41.0142 12.8647 41.354 13.2323 41.718 13.575C42.0752 13.9202 42.4673 14.2271 42.888 14.491C43.7861 15.0444 44.7783 15.4281 45.815 15.623C45.8947 15.6383 45.9523 15.7079 45.9523 15.789C45.9523 15.8702 45.8947 15.9398 45.815 15.955C45.2479 16.0658 44.6707 16.1167 44.093 16.107C43.7955 16.1053 43.4983 16.0859 43.203 16.049C42.904 16.0059 42.6076 15.9465 42.315 15.871C41.1358 15.5443 40.0294 14.9962 39.055 14.256C38.089 13.556 37.241 12.787 36.433 12.122C36.0494 11.8008 35.6488 11.5004 35.233 11.222C34.8665 10.9669 34.4764 10.7476 34.068 10.567C33.6949 10.4008 33.305 10.2751 32.905 10.192C32.714 10.139 32.505 10.127 32.313 10.092C32.106 10.085 31.913 10.051 31.701 10.061C30.8813 10.0406 30.0643 10.1621 29.286 10.42C28.5684 10.6739 27.9092 11.0698 27.348 11.584C26.6485 12.2345 25.9912 12.9289 25.38 13.663C24.5822 14.6259 23.6949 15.5108 22.73 16.306C21.5769 17.2494 20.2331 17.9318 18.791 18.306C18.426 18.411 18.062 18.467 17.697 18.535C17.336 18.582 16.971 18.629 16.616 18.648C16.261 18.667 15.907 18.684 15.553 18.667L15.021 18.65L14.478 18.593C12.9822 18.4269 11.5465 17.911 10.287 17.087C9.1741 16.3381 8.19397 15.4086 7.38701 14.337C6.65001 13.399 6.08701 12.496 5.52401 11.71C5.00563 10.9242 4.38559 10.2103 3.68001 9.58705C2.86372 8.91296 1.95045 8.36581 0.971006 7.96405C0.904756 7.93571 0.861786 7.8706 0.861786 7.79855C0.861786 7.72649 0.904756 7.66138 0.971006 7.63305V7.63405Z" fill="white"/>
</svg>
