<svg width="238" height="70" viewBox="0 0 238 70" fill="none" xmlns="http://www.w3.org/2000/svg">
<rect x="0.75" width="236.25" height="70" rx="5" fill="black"/>
<path fill-rule="evenodd" clip-rule="evenodd" d="M84.302 40.3489V43.5059H91.857C91.7491 44.9882 91.1433 46.3904 90.138 47.4849C88.6068 49.0457 86.4866 49.8856 84.302 49.7969C79.6628 49.7969 75.902 46.0361 75.902 41.3969C75.902 36.7577 79.6628 32.9969 84.302 32.9969C86.4235 32.9691 88.4701 33.7798 89.997 35.2529L92.225 33.0249C90.1201 30.9408 87.2647 29.7921 84.303 29.8379C80.1288 29.7707 76.2426 31.9591 74.1358 35.5633C72.0291 39.1674 72.0291 43.6274 74.1358 47.2316C76.2426 50.8358 80.1288 53.0242 84.303 52.9569C87.3311 53.0826 90.2673 51.9014 92.365 49.7139C94.2069 47.7036 95.1886 45.052 95.1 42.3269C95.1074 41.6656 95.0505 41.0052 94.93 40.3549L84.302 40.3489ZM112.573 45.5275C112.563 41.4205 115.881 38.0814 119.988 38.0659C121.976 38.0291 123.893 38.8006 125.301 40.2036C126.71 41.6067 127.488 43.5212 127.459 45.5089C127.459 49.6159 124.132 52.9467 120.025 52.9519C115.918 52.957 112.583 49.6345 112.573 45.5275ZM116.938 48.6477C117.729 49.4967 118.828 49.9907 119.988 50.0179C121.148 49.9923 122.249 49.4988 123.04 48.6495C123.831 47.8001 124.245 46.6671 124.188 45.5079C124.307 43.9316 123.534 42.4213 122.185 41.5967C120.836 40.7721 119.14 40.7721 117.791 41.5967C116.442 42.4213 115.669 43.9316 115.788 45.5079C115.733 46.6667 116.147 47.7987 116.938 48.6477ZM103.688 38.0659C99.581 38.0814 96.2627 41.4205 96.273 45.5275C96.2833 49.6345 99.6183 52.957 103.725 52.9519C107.832 52.9467 111.159 49.6159 111.159 45.5089C111.188 43.5216 110.41 41.6073 109.002 40.2043C107.594 38.8013 105.677 38.0297 103.69 38.0659H103.688ZM100.638 48.6477C101.429 49.4967 102.528 49.9907 103.688 50.0179H103.69C104.849 49.9902 105.949 49.4959 106.739 48.647C107.529 47.7981 107.943 46.6664 107.888 45.5079C108.007 43.9316 107.234 42.4213 105.885 41.5967C104.536 40.7721 102.84 40.7721 101.491 41.5967C100.142 42.4213 99.3688 43.9316 99.488 45.5079C99.4327 46.6667 99.8473 47.7987 100.638 48.6477ZM157.219 38.0659C160.127 38.1473 162.674 40.0397 163.591 42.8009L163.927 43.6459L153.975 47.7639C154.603 49.1841 156.033 50.0775 157.585 50.0179C159.084 50.0256 160.476 49.2437 161.249 47.9599L163.787 49.6519C162.407 51.7251 160.077 52.9653 157.587 52.9519C155.609 52.9807 153.705 52.2039 152.312 50.8001C150.919 49.3963 150.156 47.4862 150.2 45.5089C150.099 43.5791 150.791 41.6918 152.117 40.2858C153.443 38.8799 155.287 38.0778 157.219 38.0659ZM153.44 45.2849C153.369 44.1907 153.742 43.114 154.473 42.2973C155.205 41.4806 156.235 40.9925 157.33 40.9429C158.485 40.8662 159.573 41.4881 160.093 42.5219L153.44 45.2849ZM148.619 52.5019H145.35V30.6209H148.619V52.5019ZM139.992 39.7309H139.88C138.874 38.639 137.446 38.0333 135.962 38.0689C131.973 38.2357 128.824 41.5185 128.824 45.5114C128.824 49.5044 131.973 52.7872 135.962 52.9539C137.453 52.9937 138.886 52.3748 139.88 51.2619H139.992V52.3349C139.992 55.1819 138.471 56.7049 136.018 56.7049C134.346 56.6647 132.864 55.6171 132.268 54.0539L129.421 55.2389C130.518 57.9138 133.13 59.6547 136.021 59.6389C139.855 59.6389 143.098 57.3829 143.098 51.8859V38.5149H139.998L139.992 39.7309ZM133.229 48.6514C134.009 49.4948 135.096 49.9885 136.244 50.0209L136.243 50.0179C138.471 50.0179 140.218 48.1299 140.218 45.5389C140.218 42.9169 138.472 40.9989 136.244 40.9989C135.089 41.0404 133.998 41.5449 133.219 42.3989C132.439 43.2529 132.036 44.3845 132.1 45.5389C132.043 46.6861 132.45 47.8081 133.229 48.6514ZM178.911 30.6209H171.087V52.4999H174.351V44.2119H178.912C181.405 44.3122 183.752 43.0396 185.028 40.8961C186.304 38.7526 186.304 36.0823 185.028 33.9388C183.752 31.7953 181.405 30.5226 178.912 30.6229L178.911 30.6209ZM174.35 41.1649H178.995C181.066 41.1649 182.745 39.486 182.745 37.4149C182.745 35.3439 181.066 33.6649 178.995 33.6649H174.35V41.1649ZM199.176 38.0239C196.74 37.8816 194.452 39.1962 193.348 41.3719L196.248 42.5829C196.837 41.5042 198.008 40.8761 199.232 40.9829C200.921 40.9829 202.637 41.9959 202.665 43.7989V44.0229C201.617 43.4664 200.447 43.1769 199.26 43.1799C196.136 43.1799 192.955 44.8969 192.955 48.1039C192.955 51.0319 195.517 52.9179 198.387 52.9179C200.062 53.0165 201.658 52.1967 202.554 50.7779H202.666V52.4669H205.818V44.0749C205.816 40.1919 202.918 38.0249 199.175 38.0249L199.176 38.0239ZM196.219 48.1579C196.219 49.4809 197.71 50.0149 198.781 50.0149C200.758 49.9936 202.417 48.5159 202.665 46.5539C201.754 46.0473 200.723 45.7945 199.681 45.8219C198.076 45.8219 196.219 46.4689 196.219 48.1579ZM217.299 38.5029L213.557 47.9849H213.445L209.56 38.4999H206.042L211.868 51.7559L208.546 59.1299H211.951L220.931 38.5029H217.299ZM191.153 52.5029H187.887V30.6229H191.153V52.5029Z" fill="white"/>
<path fill-rule="evenodd" clip-rule="evenodd" d="M19.011 13.192C18.4384 13.8789 18.1494 14.7583 18.203 15.651V54.351C18.1491 55.2436 18.4382 56.1232 19.011 56.81L19.141 56.936L40.822 35.257V34.746L19.141 13.064L19.011 13.192Z" fill="url(#paint0_linear)"/>
<path fill-rule="evenodd" clip-rule="evenodd" d="M48.049 42.4931L40.824 35.2571V34.7461L48.053 27.5171L48.216 27.6111L56.779 32.4761C59.224 33.8651 59.224 36.1391 56.779 37.5281L48.214 42.3931L48.049 42.4931Z" fill="url(#paint1_linear)"/>
<path fill-rule="evenodd" clip-rule="evenodd" d="M48.214 42.394L40.822 35.001L19.012 56.811C19.819 57.665 21.151 57.77 22.65 56.918L48.214 42.394Z" fill="url(#paint2_linear)"/>
<path fill-rule="evenodd" clip-rule="evenodd" d="M48.214 27.6101L22.65 13.0851C21.15 12.2331 19.819 12.3381 19.012 13.1921L40.822 35.0021L48.214 27.6101Z" fill="url(#paint3_linear)"/>
<path opacity="0.2" fill-rule="evenodd" clip-rule="evenodd" d="M48.052 42.231L22.652 56.663C21.231 57.471 19.961 57.417 19.145 56.682L19.014 56.812L19.144 56.94C19.959 57.675 21.23 57.729 22.651 56.921L48.214 42.394L48.052 42.231Z" fill="black"/>
<path opacity="0.12" fill-rule="evenodd" clip-rule="evenodd" d="M19.011 56.5569C18.4382 55.8701 18.1491 54.9906 18.203 54.0979V54.3549C18.1487 55.247 18.4378 56.1261 19.011 56.8119L19.142 56.6819L19.011 56.5569Z" fill="black"/>
<path opacity="0.12" fill-rule="evenodd" clip-rule="evenodd" d="M56.776 37.273L48.051 42.231L48.214 42.394L56.777 37.529C57.803 37.0831 58.5056 36.1147 58.611 35.001C58.3923 36.0055 57.7121 36.8478 56.776 37.273Z" fill="black"/>
<path opacity="0.25" fill-rule="evenodd" clip-rule="evenodd" d="M22.65 13.3411L56.777 32.7311C57.7124 33.1563 58.3923 33.9981 58.611 35.0021C58.5063 33.8883 57.8034 32.9199 56.777 32.4751L22.65 13.0851C20.204 11.6961 18.203 12.8501 18.203 15.6511V15.9081C18.203 13.1061 20.203 11.9561 22.65 13.3411Z" fill="white"/>
<defs>
<linearGradient id="paint0_linear" x1="46.467" y1="274.76" x2="11.7506" y2="265.533" gradientUnits="userSpaceOnUse">
<stop stop-color="#00A0FF"/>
<stop offset="0.007" stop-color="#00A1FF"/>
<stop offset="0.26" stop-color="#00BEFF"/>
<stop offset="0.512" stop-color="#00D2FF"/>
<stop offset="0.76" stop-color="#00DFFF"/>
<stop offset="1" stop-color="#00E3FF"/>
</linearGradient>
<linearGradient id="paint1_linear" x1="59.9647" y1="265.748" x2="17.6097" y2="265.748" gradientUnits="userSpaceOnUse">
<stop stop-color="#FFE000"/>
<stop offset="0.409" stop-color="#FFBD00"/>
<stop offset="0.775" stop-color="#FFA500"/>
<stop offset="1" stop-color="#FF9C00"/>
</linearGradient>
<linearGradient id="paint2_linear" x1="70.0279" y1="264.143" x2="42.1772" y2="217.215" gradientUnits="userSpaceOnUse">
<stop stop-color="#FF3A44"/>
<stop offset="1" stop-color="#C31162"/>
</linearGradient>
<linearGradient id="paint3_linear" x1="25.0568" y1="325.044" x2="37.5037" y2="304.094" gradientUnits="userSpaceOnUse">
<stop stop-color="#32A071"/>
<stop offset="0.068" stop-color="#2DA771"/>
<stop offset="0.476" stop-color="#15CF74"/>
<stop offset="0.801" stop-color="#06E775"/>
<stop offset="1" stop-color="#00F076"/>
</linearGradient>
</defs>
</svg>
