<svg width="165" height="26" viewBox="0 0 165 26" fill="none" xmlns="http://www.w3.org/2000/svg">
<path fill-rule="evenodd" clip-rule="evenodd" d="M1.116 7.63405C2.28681 7.15399 3.56963 7.0153 4.816 7.23405C6.10805 7.48344 7.33405 7.99905 8.416 8.74805C9.462 9.44805 10.352 10.205 11.143 10.841C11.8029 11.4012 12.525 11.8837 13.295 12.279C13.6063 12.4331 13.9322 12.5554 14.268 12.644C14.6053 12.743 14.9511 12.81 15.301 12.844C15.393 12.852 15.485 12.86 15.577 12.873L15.867 12.884C16.061 12.901 16.255 12.884 16.449 12.884C16.643 12.884 16.822 12.853 17.006 12.836C17.18 12.801 17.361 12.785 17.524 12.736C17.8562 12.6572 18.179 12.5433 18.487 12.396C18.8229 12.2425 19.1414 12.0534 19.437 11.832C20.182 11.2503 20.8838 10.6153 21.537 9.93205C22.3928 9.03131 23.3246 8.20593 24.322 7.46505C24.8996 7.04919 25.517 6.69145 26.165 6.39705C26.8261 6.08906 27.5222 5.86273 28.238 5.72305C28.5874 5.65171 28.9402 5.59798 29.295 5.56205C29.643 5.53705 29.995 5.51105 30.333 5.51305C30.671 5.51505 31.011 5.51305 31.347 5.55405L31.847 5.60505L32.356 5.68905C33.7327 5.91871 35.0408 6.45269 36.185 7.25205C37.2108 7.98988 38.1188 8.87899 38.878 9.88905C39.598 10.798 40.198 11.689 40.846 12.475C41.1592 12.8647 41.499 13.2323 41.863 13.575C42.2201 13.9202 42.6123 14.2271 43.033 14.491C43.9311 15.0444 44.9233 15.4281 45.96 15.623C46.0397 15.6383 46.0973 15.7079 46.0973 15.789C46.0973 15.8702 46.0397 15.9398 45.96 15.955C45.3929 16.0658 44.8157 16.1167 44.238 16.107C43.9404 16.1053 43.6433 16.0859 43.348 16.049C43.049 16.0059 42.7525 15.9465 42.46 15.871C41.2807 15.5443 40.1744 14.9962 39.2 14.256C38.234 13.556 37.386 12.787 36.578 12.122C36.1944 11.8008 35.7938 11.5004 35.378 11.222C35.0115 10.9669 34.6214 10.7476 34.213 10.567C33.8399 10.4008 33.45 10.2751 33.05 10.192C32.859 10.139 32.65 10.127 32.458 10.092C32.251 10.085 32.058 10.051 31.846 10.061C31.0263 10.0406 30.2093 10.1621 29.431 10.42C28.7133 10.6739 28.0542 11.0698 27.493 11.584C26.7935 12.2345 26.1362 12.9289 25.525 13.663C24.7272 14.6259 23.8399 15.5108 22.875 16.306C21.7219 17.2494 20.3781 17.9318 18.936 18.306C18.571 18.411 18.207 18.467 17.842 18.535C17.481 18.582 17.116 18.629 16.761 18.648C16.406 18.667 16.052 18.684 15.698 18.667L15.166 18.65L14.623 18.593C13.1272 18.4269 11.6915 17.911 10.432 17.087C9.31909 16.3381 8.33896 15.4086 7.532 14.337C6.795 13.399 6.232 12.496 5.669 11.71C5.15062 10.9242 4.53058 10.2103 3.825 9.58705C3.00871 8.91296 2.09544 8.36581 1.116 7.96405C1.04974 7.93571 1.00677 7.8706 1.00677 7.79855C1.00677 7.72649 1.04974 7.66138 1.116 7.63305V7.63405Z" fill="white"/>
</svg>
