<svg width="22" height="18" viewBox="0 0 22 18" fill="none" xmlns="http://www.w3.org/2000/svg">
<path fill-rule="evenodd" clip-rule="evenodd" d="M22 3.00405L20 2.50405L21 0.504054L18.536 1.20405C17.2285 -0.0157371 15.3209 -0.341197 13.6829 0.376069C12.0449 1.09334 10.9903 2.71594 11 4.50405V5.50405C7.461 6.23405 4.366 4.30405 1.5 1.00405C1 3.67072 1.5 5.67072 3 7.00405L0 6.50405C0.4 8.57305 1.362 10.2041 4 10.5041L1.5 11.5041C2.5 13.5041 4.066 13.8141 6.5 14.0041C4.60692 15.3567 2.32603 16.0585 0 16.0041C12.755 21.6731 20 13.3401 20 6.00405V4.67605L22 3.00405Z" fill="white"/>
</svg>
