<svg width="23" height="16" viewBox="0 0 23 16" fill="none" xmlns="http://www.w3.org/2000/svg">
<path fill-rule="evenodd" clip-rule="evenodd" d="M21.9934 1.00732C22.6382 1.65229 23.0003 2.52701 23 3.439V12.56C23.0005 13.4722 22.6385 14.3471 21.9937 14.9923C21.3489 15.6375 20.4742 16 19.562 16H3.437C2.52501 15.9997 1.6505 15.6371 1.00591 14.992C0.361315 14.3468 -0.00052999 13.472 0 12.56V3.439C-0.000264672 2.52719 0.361698 1.65261 1.00626 1.00767C1.65082 0.362736 2.52519 0.000265178 3.437 0H19.562C20.474 0 21.3486 0.362354 21.9934 1.00732ZM9 3.279V11.939L15.769 7.61L9 3.279Z" fill="white"/>
</svg>
