<svg width="237" height="70" viewBox="0 0 237 70" fill="none" xmlns="http://www.w3.org/2000/svg">
<rect width="236.25" height="70" rx="5" fill="black"/>
<path fill-rule="evenodd" clip-rule="evenodd" d="M56.895 33.7611C56.9332 30.7923 58.4897 28.0501 61.019 26.4951C59.4169 24.2043 56.8281 22.8033 54.034 22.7151C51.095 22.4071 48.246 24.4731 46.749 24.4731C45.223 24.4731 42.917 22.7451 40.434 22.7961C37.167 22.9013 34.1951 24.7137 32.606 27.5701C29.222 33.4301 31.746 42.0421 34.988 46.7781C36.61 49.0971 38.506 51.6881 40.988 51.5961C43.415 51.4961 44.322 50.0481 47.252 50.0481C50.152 50.0481 51.005 51.5961 53.536 51.5371C56.136 51.4951 57.782 49.2071 59.347 46.8661C60.5124 45.2135 61.4091 43.3869 62.004 41.4541C58.9122 40.1465 56.901 37.118 56.895 33.7611Z" fill="white"/>
<path fill-rule="evenodd" clip-rule="evenodd" d="M52.115 19.6051C53.5351 17.9001 54.2346 15.7086 54.065 13.4961C51.896 13.723 49.892 14.7583 48.452 16.3961C47.0314 18.0138 46.3119 20.1297 46.452 22.2781C48.6495 22.3016 50.7365 21.3165 52.115 19.6051Z" fill="white"/>
<path fill-rule="evenodd" clip-rule="evenodd" d="M79.295 45.73H87.578L89.57 51.604H93.134L85.288 29.873H81.643L73.797 51.604H77.306L79.295 45.73ZM86.718 43.02H80.152L83.39 33.487H83.481L86.718 43.02Z" fill="white"/>
<path fill-rule="evenodd" clip-rule="evenodd" d="M103.467 51.77C107.444 51.77 110.079 48.607 110.079 43.683C110.079 38.773 107.428 35.594 103.407 35.595C101.338 35.528 99.3996 36.6038 98.362 38.395H98.302V35.76H95.154V56.845H98.407V48.998H98.482C99.4752 50.8009 101.411 51.8776 103.467 51.77ZM102.549 38.366C105.078 38.366 106.736 40.475 106.736 43.683C106.736 46.919 105.078 49.013 102.549 49.013C100.064 49.013 98.393 46.875 98.393 43.683C98.393 40.519 100.064 38.366 102.549 38.366Z" fill="white"/>
<path fill-rule="evenodd" clip-rule="evenodd" d="M120.905 51.77C124.882 51.77 127.517 48.607 127.517 43.683C127.517 38.773 124.866 35.594 120.849 35.595C118.78 35.528 116.842 36.6038 115.804 38.395H115.744V35.76H112.596V56.845H115.845V48.998H115.92C116.913 50.8009 118.849 51.8776 120.905 51.77ZM119.987 38.366C122.516 38.366 124.174 40.475 124.174 43.683C124.174 46.919 122.516 49.013 119.987 49.013C117.502 49.013 115.831 46.875 115.831 43.683C115.831 40.519 117.502 38.366 119.987 38.366Z" fill="white"/>
<path fill-rule="evenodd" clip-rule="evenodd" d="M139.042 45.549C139.283 47.704 141.376 49.119 144.242 49.119C146.983 49.119 148.955 47.704 148.955 45.761C148.955 44.074 147.766 43.061 144.949 42.372L142.133 41.694C138.143 40.73 136.29 38.864 136.29 35.836C136.29 32.086 139.558 29.511 144.197 29.511C148.789 29.511 151.937 32.086 152.043 35.836H148.756C148.556 33.667 146.767 32.358 144.147 32.358C141.527 32.358 139.734 33.682 139.734 35.61C139.734 37.146 140.879 38.05 143.68 38.742L146.074 39.33C150.533 40.384 152.385 42.175 152.385 45.354C152.385 49.42 149.146 51.966 143.996 51.966C139.177 51.966 135.923 49.479 135.713 45.549H139.042Z" fill="white"/>
<path fill-rule="evenodd" clip-rule="evenodd" d="M159.405 32.011V35.761H162.418V38.336H159.405V47.071C159.405 48.428 160.005 49.06 161.333 49.06C161.691 49.0538 162.048 49.0288 162.403 48.985V51.545C161.808 51.6561 161.203 51.7064 160.597 51.695C157.389 51.695 156.138 50.495 156.138 47.417V38.336H153.838V35.76H156.138V32.011H159.405Z" fill="white"/>
<path fill-rule="evenodd" clip-rule="evenodd" d="M171.677 35.5649C167.099 35.5649 164.163 38.6979 164.163 43.6829C164.163 48.6809 167.068 51.8009 171.677 51.8009C176.286 51.8009 179.193 48.6689 179.193 43.6829C179.193 38.6969 176.271 35.5649 171.677 35.5649ZM171.68 38.2449C174.313 38.2449 175.88 40.2629 175.88 43.6829C175.88 47.1189 174.315 49.1189 171.68 49.1189C169.045 49.1189 167.48 47.1159 167.48 43.6829C167.48 40.2789 169.047 38.2449 171.68 38.2449Z" fill="white"/>
<path fill-rule="evenodd" clip-rule="evenodd" d="M181.874 35.76H184.974V38.46H185.049C185.481 36.7238 187.072 35.5288 188.86 35.597C189.235 35.5956 189.608 35.6362 189.974 35.718V38.76C189.501 38.6143 189.008 38.5467 188.513 38.56C187.557 38.5212 186.632 38.9022 185.98 39.6029C185.328 40.3037 185.016 41.2543 185.124 42.205V51.605H181.874V35.76Z" fill="white"/>
<path fill-rule="evenodd" clip-rule="evenodd" d="M198.149 51.7999C201.732 51.7999 204.534 49.8259 204.971 46.9499L201.883 46.9529C201.29 48.4232 199.802 49.3296 198.224 49.1819C197.041 49.2256 195.895 48.7587 195.08 47.9C194.264 47.0412 193.857 45.8735 193.962 44.6939V44.4939H205.152V43.3799C205.152 38.5759 202.396 35.5649 198.012 35.5649C193.555 35.5649 190.679 38.7879 190.679 43.7579C190.679 48.7119 193.54 51.7999 198.149 51.7999ZM201.898 42.2209H193.977C193.974 41.1513 194.399 40.1248 195.157 39.3697C195.914 38.6147 196.942 38.1935 198.012 38.1999C199.073 38.1771 200.096 38.5981 200.834 39.3614C201.571 40.1247 201.957 41.1611 201.898 42.2209Z" fill="white"/>
</svg>
