<svg width="29" height="28" viewBox="0 0 29 28" fill="none" xmlns="http://www.w3.org/2000/svg">
<path fill-rule="evenodd" clip-rule="evenodd" d="M13.145 1.36294C13.3157 1.01014 13.6731 0.786011 14.065 0.786011C14.4569 0.786011 14.8143 1.01014 14.985 1.36294L18.765 9.00394L27.236 10.2309C27.6218 10.2868 27.9421 10.5573 28.0619 10.9282C28.1818 11.2992 28.0802 11.7059 27.8 11.9769L21.667 17.9049L23.114 26.2859C23.1797 26.6688 23.0227 27.0558 22.7088 27.2847C22.3949 27.5135 21.9784 27.5446 21.634 27.3649L14.062 23.4109L6.47899 27.3759C6.13458 27.5556 5.71808 27.5245 5.40418 27.2957C5.09029 27.0668 4.93327 26.6798 4.99899 26.2969L6.44599 17.9159L0.310991 11.9859C0.0312658 11.7143 -0.0695286 11.3072 0.0511551 10.9364C0.171839 10.5657 0.49297 10.2959 0.878991 10.2409L9.35199 9.01394L13.145 1.36294Z" fill="#FFCA38"/>
</svg>
