<svg width="1441" height="867" viewBox="0 0 1441 867" fill="none" preserveAspectRatio = "none" xmlns="http://www.w3.org/2000/svg">
<path fill-rule="evenodd" clip-rule="evenodd" d="M0.4 684.9C4.4 684.1 8.5 682.2 12.7 681.1C27.3106 677.107 42.2861 674.594 57.4 673.6C80.8975 672.009 104.5 673.999 127.4 679.5C167.5 689 199 713.7 237.1 727.7C273.2 741 312.8 742.4 350.9 737.5C400.4 731.2 447.9 714.6 496.4 703.5C546.9 692 598.1 683.2 649.8 679.4C725.9 673.9 805.1 678.8 877.5 704.2C944.2 727.6 1003.7 764.1 1065.6 797.6C1182.4 860.7 1310.3 887.7 1440.1 849.1V243.6C1440.1 170.7 1440.16 79.0851 1440.06 0.985107H0.059L0 682C0.0773638 682.974 0.21092 683.942 0.4 684.9Z" fill="url(#paint0_linear)"/>
<path opacity="0.027" fill-rule="evenodd" clip-rule="evenodd" d="M1265.62 246.555C1182.25 189.421 1102.76 128.364 1011.02 84.9341C911.436 37.7931 799.063 18.9071 689.559 15.3341C615.159 13.0011 540.715 17.8831 466.869 26.7261C395.94 35.2991 325.614 51.8761 253.977 53.4431C198.83 54.7211 142.488 46.7781 92.93 22.3651C80.0498 15.9222 67.5287 8.78502 55.422 0.985107H1440.04C1440.06 15.4431 1440.07 30.3681 1440.08 45.5481V340.094C1379.53 316.431 1321.24 284.61 1265.62 246.555Z" fill="white"/>
<path opacity="0.027" fill-rule="evenodd" clip-rule="evenodd" d="M1265.62 299.555C1182.25 242.421 1102.76 181.364 1011.02 137.934C911.436 90.7931 799.063 71.9071 689.559 68.3341C615.159 66.0011 540.715 70.8831 466.869 79.7261C395.94 88.2991 325.614 104.876 253.977 106.443C198.83 107.721 142.488 99.7781 92.93 75.3651C59.709 59.0361 30.935 36.9421 0.0579834 17.9761V0.976074H1440.04C1440.06 16.3401 1440.07 32.2311 1440.08 48.3961C1440.08 53.9374 1440.08 59.3914 1440.08 64.7581V393.094C1379.53 369.431 1321.24 337.61 1265.62 299.555Z" fill="white"/>
<path opacity="0.08" fill-rule="evenodd" clip-rule="evenodd" d="M1440.1 835.719V848.519C1310.2 887.119 1182.3 860.119 1065.6 797.019C1003.7 763.619 944.2 727.019 877.5 703.619C805.1 678.319 725.9 673.319 649.7 678.819C598.1 682.619 546.9 691.519 496.4 702.919C447.9 713.919 400.4 730.519 350.9 736.919C312.8 741.819 273.2 740.419 237.1 727.119C199 713.119 167.5 688.419 127.4 678.919C104.486 673.508 80.8966 671.52 57.4 673.019C42.2861 674.013 27.3106 676.526 12.7 680.519C8.6 681.619 4.4 683.519 0.4 684.319C0.31582 683.346 0.182315 682.378 0 681.419V641.419C6.3 640.619 12.5 640.019 18.7 639.519C43.576 637.908 68.5529 640.032 92.8 645.819C135.2 655.919 168.6 682.019 208.9 696.919C247.1 710.919 289 712.419 329.3 707.319C381.7 700.619 432 683.019 483.3 671.319C536.7 659.119 590.9 649.819 645.6 645.819C726.2 639.819 810.1 645.119 886.7 672.019C957.3 696.819 1020.3 735.419 1085.8 770.819C1196.7 830.819 1317.2 859.919 1440.1 835.719Z" fill="white"/>
<defs>
<linearGradient id="paint0_linear" x1="-707.343" y1="433.979" x2="64.0016" y2="1694.06" gradientUnits="userSpaceOnUse">
<stop stop-color="#5A67FF"/>
<stop offset="1" stop-color="#9B2BCC"/>
</linearGradient>
</defs>
</svg>
