<svg width="1442" height="591" viewBox="0 0 1442 591" fill="none" preserveAspectRatio = "none" xmlns="http://www.w3.org/2000/svg">
<path fill-rule="evenodd" clip-rule="evenodd" d="M1441 142.998C1437 143.623 1432.2 145.139 1428 145.998C1413.52 149.178 1398.8 151.185 1384 151.998C1360.55 153.114 1337.05 151.435 1314 146.998C1273.9 139.578 1242.1 120.933 1204 109.998C1167.9 99.609 1128.1 98.171 1090 101.998C1040.5 106.919 993.5 120.328 945 128.998C894.066 138.029 842.643 144.039 791 146.998C714.908 151.298 636.393 147.838 564 127.998C497.307 109.72 437.894 81.164 376 54.998C259.212 5.71097 130.787 -15.152 1.00001 14.998V487.998C1.00001 544.939 0.900011 529.998 1.00001 590.998H1441V144.998C1440.9 144.219 1441.2 143.698 1441 142.998Z" fill="url(#paint0_linear)"/>
<path opacity="0.04" fill-rule="evenodd" clip-rule="evenodd" d="M375.413 55.7479C437.313 81.9029 496.813 110.4 563.513 128.67C635.913 148.501 715.113 152.327 791.213 148.033C842.913 145.066 894.113 138.195 944.613 129.217C993.113 120.551 1040.61 107.59 1090.11 102.671C1128.21 98.8449 1167.81 99.9389 1203.91 110.323C1242 121.253 1273.5 140.537 1313.6 147.954C1336.67 152.26 1360.17 153.806 1383.6 152.56C1398.63 151.795 1413.58 149.836 1428.3 146.703C1432.5 145.846 1436.6 144.363 1440.6 143.739C1440.79 144.483 1440.92 145.24 1441 146.003V183.284C1434.7 184.084 1428.5 184.684 1422.3 185.184C1397.42 186.795 1372.45 184.671 1348.2 178.884C1305.8 168.784 1272.4 142.684 1232.1 127.784C1193.9 113.784 1152 112.284 1111.7 117.384C1059.3 124.084 1009 141.684 957.7 153.384C904.3 165.584 850.1 174.884 795.4 178.884C714.8 184.884 630.9 179.584 554.3 152.684C483.7 127.884 420.7 89.2839 355.2 53.8839C340.715 46.0473 326.068 38.7529 311.259 32.0009C332.97 38.9129 354.355 46.8286 375.413 55.7479Z" fill="white"/>
<path opacity="0.03" fill-rule="evenodd" clip-rule="evenodd" d="M1 591V390C87.436 406.152 170.02 438.557 247 481C316.819 519.552 383.2 560.406 459 591H1Z" fill="white"/>
<defs>
<linearGradient id="paint0_linear" x1="-706.386" y1="295.991" x2="-287.094" y2="1301.33" gradientUnits="userSpaceOnUse">
<stop stop-color="#5A67FF"/>
<stop offset="1" stop-color="#9B2BCC"/>
</linearGradient>
</defs>
</svg>
