<svg width="30" height="30" viewBox="0 0 30 30" fill="none" xmlns="http://www.w3.org/2000/svg">
<path opacity="0.5" fill-rule="evenodd" clip-rule="evenodd" d="M10.633 8.91594C11.8185 7.72774 11.8185 5.80414 10.633 4.61594L7.406 1.39094C6.21826 0.204322 4.29374 0.204322 3.106 1.39094L1.336 3.16094C-0.197686 4.69281 -0.439043 7.09342 0.759 8.89994C5.96722 16.7402 12.6882 23.4619 20.528 28.6709C22.3353 29.8674 24.7349 29.6271 26.269 28.0959L28.038 26.3259C28.6084 25.7558 28.9288 24.9824 28.9288 24.1759C28.9288 23.3695 28.6084 22.5961 28.038 22.0259L24.812 18.7999C24.2419 18.2296 23.4685 17.9091 22.662 17.9091C21.8555 17.9091 21.0821 18.2296 20.512 18.7999L19.436 19.8759C15.8315 16.9095 12.5233 13.6004 9.558 9.99494L10.633 8.91594Z" stroke="white" stroke-linecap="round" stroke-linejoin="round"/>
</svg>
