<svg width="25" height="25" viewBox="0 0 25 25" fill="none" xmlns="http://www.w3.org/2000/svg">
<path fill-rule="evenodd" clip-rule="evenodd" d="M6.99902 24.001C3.68691 23.9971 1.00288 21.3131 0.999023 18.001V7.00098C1.00288 3.68887 3.68691 1.00483 6.99902 1.00098H17.999C21.3111 1.00483 23.9952 3.68887 23.999 7.00098V18.001C23.9952 21.3131 21.3111 23.9971 17.999 24.001H6.99902ZM12.499 6.50098C9.18691 6.50483 6.50288 9.18887 6.49902 12.501C6.50233 15.8133 9.18669 18.4977 12.499 18.501C15.8114 18.4977 18.4957 15.8133 18.499 12.501C18.4952 9.18887 15.8111 6.50483 12.499 6.50098ZM17.999 5.50098C17.999 4.67255 18.6706 4.00098 19.499 4.00098C20.3274 4.00098 20.999 4.67255 20.999 5.50098C20.999 6.3294 20.3274 7.00098 19.499 7.00098C18.6706 7.00098 17.999 6.3294 17.999 5.50098Z" fill="white"/>
</svg>
