<svg width="128" height="39" viewBox="0 0 128 39" fill="none" xmlns="http://www.w3.org/2000/svg">
<path fill-rule="evenodd" clip-rule="evenodd" d="M19.195 0.609985C8.5952 0.612747 0.0040844 9.20685 0.00500488 19.8067C0.00592536 30.4065 8.59853 38.9991 19.1983 39C29.7981 39.0009 38.3922 30.4098 38.395 19.81C38.395 14.7178 36.3722 9.83423 32.7715 6.23354C29.1708 2.63284 24.2872 0.609985 19.195 0.609985ZM27.995 28.295C27.6501 28.8589 26.9142 29.0377 26.349 28.695C21.842 25.942 16.169 25.319 9.487 26.845C8.86685 26.9369 8.28042 26.536 8.14104 25.9248C8.00166 25.3135 8.35629 24.698 8.955 24.512C16.267 22.841 22.539 23.561 27.599 26.653C28.1601 26.998 28.3382 27.7309 27.998 28.295H27.995ZM28.286 23.561C28.9908 23.991 29.9106 23.7707 30.344 23.068C30.7734 22.3634 30.5531 21.4444 29.851 21.011C23.926 17.369 15.259 16.345 8.288 18.46C7.74247 18.5864 7.31277 19.0062 7.17364 19.5486C7.0345 20.091 7.2091 20.6658 7.62643 21.0392C8.04377 21.4125 8.63434 21.5224 9.158 21.324C15.261 19.471 23.126 20.39 28.286 23.561ZM30.544 17.625C24.358 13.95 14.151 13.613 8.244 15.405C7.61462 15.6469 6.90278 15.5168 6.39967 15.0679C5.89655 14.619 5.68655 13.9265 5.85556 13.2737C6.02457 12.6209 6.54424 12.1174 7.202 11.969C13.982 9.91098 25.254 10.308 32.377 14.537C33.1494 15.0765 33.3752 16.1203 32.8946 16.9307C32.4141 17.7412 31.3899 18.0439 30.546 17.625H30.544ZM48.319 15.814C48.319 16.98 48.905 17.535 52.219 18.325L52.23 18.324C56.266 19.306 57.914 20.83 57.907 23.582C57.907 26.844 55.415 28.95 51.56 28.95C48.8599 28.9615 46.2532 27.9627 44.252 26.15C44.1661 26.0716 44.1569 25.9396 44.231 25.85L46.046 23.691C46.0835 23.6467 46.1371 23.6193 46.195 23.615C46.2525 23.6117 46.3091 23.6307 46.353 23.668C47.7637 25.0513 49.6563 25.8329 51.632 25.848C53.374 25.848 54.456 25.094 54.456 23.881C54.456 22.787 53.92 22.175 50.75 21.445C47.023 20.545 44.866 19.378 44.866 16.083C44.866 13.01 47.367 10.863 50.945 10.863C53.2604 10.8206 55.5159 11.6 57.311 13.063C57.4032 13.1356 57.4213 13.2683 57.352 13.363L55.734 15.644C55.6999 15.6914 55.6483 15.7232 55.5907 15.7324C55.5331 15.7416 55.4741 15.7274 55.427 15.693C54.1481 14.6362 52.556 14.0312 50.898 13.972C49.355 13.972 48.319 14.714 48.319 15.814ZM66.628 15.057C64.9991 15.0352 63.4542 15.7781 62.454 17.064V15.546C62.4546 15.4265 62.3585 15.3291 62.239 15.328H59.274C59.2165 15.3282 59.1616 15.3514 59.1212 15.3923C59.0809 15.4332 59.0585 15.4885 59.059 15.546V32.417C59.0584 32.5364 59.1545 32.6339 59.274 32.635H62.243C62.3625 32.6339 62.4586 32.5364 62.458 32.417V27.092C63.4946 28.3171 65.0275 29.0108 66.632 28.981C69.738 28.981 72.882 26.59 72.882 22.02C72.882 17.45 69.742 15.058 66.634 15.058L66.628 15.057ZM65.942 25.971C67.9946 25.971 69.4274 24.3467 69.428 22.0205C69.4274 19.7313 67.9606 18.071 65.942 18.071C63.9248 18.289 62.3959 19.992 62.3959 22.021C62.3959 24.05 63.9248 25.753 65.942 25.971ZM80.937 15.057C77.1005 15.1296 74.0429 18.2871 74.0936 22.124C74.1444 25.9609 77.2844 29.0364 81.1215 29.0075C84.9586 28.9787 88.052 25.8562 88.045 22.019C88.0351 20.1502 87.2783 18.363 85.9432 17.0553C84.6081 15.7476 82.8056 15.0281 80.937 15.057ZM78.2226 24.8031C78.9272 25.5535 79.9077 25.9837 80.937 25.994L80.94 25.998C81.963 26.0008 82.9415 25.5799 83.6431 24.8354C84.3446 24.0908 84.7066 23.089 84.643 22.068C84.6954 21.0365 84.324 20.0284 83.615 19.2774C82.9059 18.5264 81.9208 18.0978 80.888 18.091C79.8675 18.0896 78.8921 18.5114 78.1942 19.2558C77.4962 20.0002 77.138 21.0007 77.205 22.019C77.1504 23.0469 77.518 24.0526 78.2226 24.8031ZM96.586 15.329H93.32V11.99C93.3203 11.9327 93.2978 11.8777 93.2574 11.837C93.2171 11.7963 93.1623 11.7732 93.105 11.773H90.137C90.017 11.773 89.9196 11.87 89.919 11.99V15.329H88.493C88.3736 15.3301 88.2774 15.4275 88.278 15.547V18.097C88.2774 18.2164 88.3736 18.3139 88.493 18.315H89.919V24.915C89.919 27.581 91.246 28.933 93.866 28.933C94.8374 28.9561 95.797 28.7171 96.644 28.241C96.7125 28.2034 96.7548 28.1311 96.754 28.053V25.623C96.7541 25.5489 96.7164 25.4799 96.654 25.44C96.5903 25.3995 96.5099 25.396 96.443 25.431C95.9048 25.7095 95.307 25.8533 94.701 25.85C93.75 25.85 93.323 25.417 93.323 24.45V18.316H96.589C96.7085 18.3149 96.8046 18.2174 96.804 18.098V15.548C96.8059 15.4906 96.7842 15.4349 96.744 15.3939C96.7037 15.3529 96.6485 15.3301 96.591 15.331L96.586 15.329ZM107.964 14.932V15.342L107.969 15.348H113.039C113.128 15.3489 113.208 15.4045 113.239 15.488L116.702 24.53L119.868 15.491C119.898 15.4033 119.981 15.3446 120.074 15.345H123.164C123.236 15.3452 123.304 15.3814 123.344 15.4416C123.384 15.5018 123.392 15.5781 123.364 15.645L118.216 28.945C117.146 31.691 115.937 32.713 113.746 32.713C112.637 32.7289 111.543 32.449 110.578 31.902C110.477 31.8476 110.436 31.7241 110.484 31.62L111.49 29.413C111.515 29.3579 111.561 29.3155 111.618 29.296C111.675 29.2795 111.737 29.2852 111.79 29.312C112.287 29.6034 112.851 29.7637 113.427 29.778C114.071 29.778 114.546 29.565 115.027 28.497L110.782 18.319H108.011V28.494C108.012 28.552 107.989 28.6077 107.948 28.6487C107.907 28.6897 107.851 28.7125 107.793 28.712H104.827C104.707 28.712 104.609 28.6144 104.609 28.494V18.316H103.185C103.065 18.3154 102.968 18.2182 102.967 18.098V15.534C102.968 15.414 103.065 15.317 103.185 15.317H104.611V14.689C104.611 11.771 106.062 10.227 108.801 10.227C109.636 10.2176 110.468 10.337 111.267 10.581C111.359 10.6083 111.422 10.6937 111.421 10.79V13.29C111.422 13.3597 111.389 13.4255 111.332 13.4665C111.276 13.5076 111.203 13.5189 111.137 13.497C110.601 13.2996 110.035 13.1951 109.464 13.188C108.427 13.188 107.964 13.726 107.964 14.932ZM101.364 15.329H98.396C98.2758 15.3295 98.1786 15.4268 98.178 15.547V28.494C98.178 28.6144 98.2756 28.712 98.396 28.712H101.364C101.484 28.712 101.582 28.6144 101.582 28.494V15.551C101.582 15.4931 101.559 15.4375 101.518 15.3965C101.478 15.3556 101.422 15.3327 101.364 15.333V15.329ZM97.9302 10.7422C98.2598 9.9469 99.0361 9.42858 99.897 9.42898L99.903 9.43699C101.072 9.44082 102.019 10.387 102.024 11.556C102.024 12.4169 101.506 13.1932 100.711 13.5228C99.9156 13.8524 99 13.6704 98.3913 13.0617C97.7826 12.453 97.6006 11.5374 97.9302 10.7422ZM125.897 19.487C124.742 19.4837 123.808 18.5459 123.809 17.391C123.81 16.2361 124.746 15.3001 125.901 15.299C127.056 15.2979 127.994 16.2321 127.997 17.387C128.002 17.9455 127.783 18.4826 127.388 18.8776C126.993 19.2725 126.456 19.4921 125.897 19.487ZM124.152 16.6601C124.449 15.9552 125.143 15.4997 125.908 15.507L125.909 15.515C126.405 15.5152 126.88 15.7127 127.231 16.0639C127.581 16.415 127.777 16.891 127.776 17.387C127.778 18.152 127.318 18.8426 126.612 19.1354C125.905 19.4281 125.091 19.2649 124.552 18.7222C124.013 18.1796 123.855 17.365 124.152 16.6601ZM126.371 17.602L126.963 18.429H126.463L125.931 17.671H125.475V18.429H125.058V16.237H126.034C126.545 16.237 126.88 16.498 126.88 16.937C126.895 17.2526 126.681 17.5334 126.373 17.603L126.371 17.602ZM125.475 16.613H126.018L126.022 16.62C126.292 16.62 126.451 16.745 126.451 16.959C126.451 17.173 126.288 17.306 126.018 17.306H125.475V16.613Z" fill="#D3D3D3"/>
</svg>
